<svg xmlns="http://www.w3.org/2000/svg" xml:space="preserve" width="800" height="800" viewBox="0 0 32 32"><path d="M13.767 19.354h1.398v6.377l-1.123-.002.003-.823c-.301.646-1.507 1.168-2.136.714-.337-.241-.326-.666-.36-1.029-.018-.206-.003-.658-.004-1.27l-.004-3.967h1.39l.007 4.03c0 .55-.03.87.004.976.198.607.71.279.823-.031.038-.104.002-.393.002-.971v-4.004zm5.868 1.25.004 3.334c0 1.615-.922 2.535-2.391 1.188l-.104.533-1.149.017.007-8.55 1.396-.002-.006 2.478c1.292-1.026 2.242-.266 2.243 1.002zm-1.035-.166c0-.274-.274-.502-.611-.502-.336 0-.61.228-.61.502v3.74c0 .276.274.502.61.502.337 0 .611-.226.611-.502v-3.74zm-2.847-8.157c.341 0 .619-.306.619-.681V8.071c0-.375-.278-.682-.619-.682-.34 0-.619.307-.619.682V11.6c0 .376.279.681.619.681zm-3.938 5.955v-1.109l-4.471-.007v1.093l1.396.003v7.521h1.399l-.002-7.498h1.678v-.003zM32 0v32H0V0h32zM18.475 11.019c0 .567.01.948.027 1.141.02.191.062.375.135.554a.962.962 0 0 0 .336.425c.15.105.342.158.572.158.201 0 .38-.056.536-.168.155-.111.286-.277.394-.501l-.026.549h1.559V6.549H20.78v5.158a.51.51 0 0 1-1.024 0V6.549h-1.279v4.471l-.002-.001zm-4.403-3.541c-.105.357-.159.854-.159 1.49v1.754c0 .582.029 1.019.087 1.309.059.289.156.539.293.742.136.205.327.358.574.459.247.104.546.151.901.151.318 0 .6-.059.845-.178.242-.117.445-.304.601-.551.158-.25.261-.519.308-.806.047-.287.071-.74.071-1.354V8.819c0-.486-.024-.848-.079-1.086a2.1 2.1 0 0 0-.289-.69 1.54 1.54 0 0 0-.598-.543c-.258-.14-.566-.21-.927-.21-.429 0-.781.109-1.057.326a1.668 1.668 0 0 0-.571.862zM8.97 3.935l1.849 4.366.001 5.081h1.471l.001-5.083 1.738-4.354h-1.608l-.924 3.234-.937-3.244H8.97zm17.085 13.91c0-1.706-1.479-3.104-3.291-3.104H9.236c-1.81 0-3.29 1.396-3.29 3.104v7.116c0 1.707 1.479 3.104 3.29 3.104h13.528c1.812 0 3.291-1.396 3.291-3.104v-7.116zm-2.041 5.651c.479 2.841-3.531 3.309-3.531.005v-1.985c0-.597.059-1.064.179-1.408a1.55 1.55 0 0 1 .587-.789c.848-.612 2.521-.424 2.693.771.056.377.072 1.037.072 1.697v.901h-2.4v1.539c0 .313.259.568.572.568h.205a.573.573 0 0 0 .573-.568v-.584c0-.054.002-.101.003-.143l1.047-.004zm-2.384-1.91h1.325l.016-.771a.625.625 0 0 0-.627-.621h-.082a.624.624 0 0 0-.625.621l-.007.771z"/></svg>